:FULLY-SPECIFIED
:FORCE-ALL-JOINTS-BE-3DOF
:DEGREES
259
root 9.56153 16.5075 -0.34163 8.77311 -5.05053 -0.339239
lfemur -35.0917 9.0331 -26.2342
ltibia 38.9 0 0
lfoot -11.0077 4.98932 0
ltoes -0.208371 0 0
rfemur -0.463979 0.622938 18.0428
rtibia 36.5219 0 0
rfoot 3.47047 0.183254 0
rtoes -18.1195 0 0
lowerback -6.03934 0.750752 -1.79627
upperback -2.47252 1.07701 1.70723
thorax 0.85515 0.534295 2.81723
lowerneck -19.541 -5.23242 -13.2439
upperneck 19.0706 -6.50663 13.6458
head 10.2559 -2.48918 6.1529
lclavicle -1.02423e-14 -1.56579e-15 0
lhumerus -36.8053 -7.19594 86.6815
lradius 20.5198 0 0
lwrist -6.02158 0 0
lhand -9.48873 -22.9431 0
lfingers 7.12502 0 0
lthumb 16.4734 6.33735 0
rclavicle -1.02423e-14 -1.56579e-15 0
rhumerus -47.5857 7.91765 -86.2447
rradius 40.1545 0 0
rwrist -22.1041 0 0
rhand -29.0408 -21.6507 0
rfingers 7.12502 0 0
rthumb -2.39119 -51.6196 0
260
root 9.57869 16.52 -0.211736 8.64486 -4.91141 -0.196362
lfemur -34.1877 8.91254 -26.4383
ltibia 38.4287 0 0
lfoot -11.3972 5.00466 0
ltoes -0.271134 0 0
rfemur -1.70125 0.564554 17.9321
rtibia 37.0215 0 0
rfoot 2.58116 -0.348942 0
rtoes -18.3818 0 0
lowerback -5.99712 0.606906 -1.89884
upperback -2.38779 0.889896 1.71511
thorax 0.934402 0.437955 2.86982
lowerneck -19.6462 -5.1691 -13.168
upperneck 19.229 -6.41695 13.5436
head 10.3133 -2.45049 6.12147
lclavicle -8.8853e-15 -1.03821e-15 0
lhumerus -35.8312 -7.4934 86.5575
lradius 20.6301 0 0
lwrist -5.76094 0 0
lhand -9.76622 -22.9946 0
lfingers 7.12502 0 0
lthumb 16.206 6.30485 0
rclavicle -8.8853e-15 -1.03821e-15 0
rhumerus -47.5877 7.90363 -86.1404
rradius 40.2035 0 0
rwrist -22.1668 0 0
rhand -29.0594 -21.5995 0
rfingers 7.12502 0 0
rthumb -2.40914 -51.5681 0
261
root 9.59585 16.5324 -0.081842 8.51216 -4.7636 -0.0518343
lfemur -33.2595 8.78378 -26.6413
ltibia 37.9335 0 0
lfoot -11.7988 5.02372 0
ltoes -0.346525 0 0
rfemur -2.97327 0.507125 17.8258
rtibia 37.5201 0 0
rfoot 1.65428 -0.893002 0
rtoes -18.6461 0 0
lowerback -5.9539 0.45956 -2.00202
upperback -2.2996 0.698063 1.72426
thorax 1.01707 0.339184 2.92376
lowerneck -19.7523 -5.10488 -13.0907
upperneck 19.3894 -6.32597 13.4394
head 10.3713 -2.41132 6.08938
lclavicle -7.46686e-15 -4.94487e-16 0
lhumerus -34.8375 -7.80255 86.4367
lradius 20.7488 0 0
lwrist -5.48329 0 0
lhand -10.0527 -23.0482 0
lfingers 7.12502 0 0
lthumb 15.93 6.27085 0
rclavicle -7.46686e-15 -4.94487e-16 0
rhumerus -47.5829 7.89101 -86.0299
rradius 40.2604 0 0
rwrist -22.2338 0 0
rhand -29.0809 -21.5514 0
rfingers 7.12502 0 0
rthumb -2.42993 -51.5198 0
262
root 9.61301 16.5448 0.0480522 8.37559 -4.60762 0.0940015
lfemur -32.309 8.64761 -26.8425
ltibia 37.4161 0 0
lfoot -12.2104 5.04591 0
ltoes -0.433924 0 0
rfemur -4.276 0.450728 17.7237
rtibia 38.017 0 0
rfoot 0.69435 -1.44684 0
rtoes -18.9117 0 0
lowerback -5.90992 0.309125 -2.10566
upperback -2.20838 0.502067 1.73459
thorax 1.10281 0.238267 2.97889
lowerneck -19.8591 -5.03998 -13.0124
upperneck 19.5511 -6.23397 13.3336
head 10.4297 -2.37178 6.05673
lclavicle -5.99317e-15 6.24477e-17 0
lhumerus -33.8274 -8.1228 86.3195
lradius 20.8755 0 0
lwrist -5.19005 0 0
lhand -10.3468 -23.1038 0
lfingers 7.12502 0 0
lthumb 15.6466 6.23547 0
rclavicle -5.99317e-15 6.24477e-17 0
rhumerus -47.5719 7.87965 -85.9138
rradius 40.3242 0 0
rwrist -22.3044 0 0
rhand -29.1051 -21.5066 0
rfingers 7.12502 0 0
rthumb -2.45327 -51.4747 0
263
root 9.63018 16.5572 0.177946 8.2357 -4.44398 0.240801
lfemur -31.338 8.50482 -27.0414
ltibia 36.878 0 0
lfoot -12.6298 5.07064 0
ltoes -0.53271 0 0
rfemur -5.60541 0.395438 17.6257
rtibia 38.5112 0 0
rfoot -0.294088 -2.00835 0
rtoes -19.1778 0 0
lowerback -5.86539 0.156014 -2.20958
upperback -2.11455 0.30246 1.74601
thorax 1.19128 0.13549 3.03505
lowerneck -19.9662 -4.97457 -12.9332
upperneck 19.7139 -6.14125 13.2266
head 10.4884 -2.332 6.02366
lclavicle -4.47046e-15 6.2965e-16 0
lhumerus -32.8043 -8.45352 86.2064
lradius 21.0099 0 0
lwrist -4.88265 0 0
lhand -10.6471 -23.1611 0
lfingers 7.12502 0 0
lthumb 15.3573 6.19883 0
rclavicle -4.47046e-15 6.2965e-16 0
rhumerus -47.5551 7.8694 -85.7927
rradius 40.3939 0 0
rwrist -22.3778 0 0
rhand -29.1316 -21.4648 0
rfingers 7.12502 0 0
rthumb -2.47888 -51.4326 0
264
root 9.64734 16.5696 0.30784 8.09304 -4.27321 0.388222
lfemur -30.3484 8.35618 -27.2372
ltibia 36.321 0 0
lfoot -13.0548 5.09729 0
ltoes -0.642259 0 0
rfemur -6.95745 0.341332 17.5316
rtibia 39.0018 0 0
rfoot -1.30651 -2.57546 0
rtoes -19.4437 0 0
lowerback -5.82055 0.000639319 -2.3136
upperback -2.01851 0.0997926 1.75842
thorax 1.28213 0.0311383 3.09207
lowerneck -20.0732 -4.90886 -12.8535
upperneck 19.8773 -6.0481 13.1187
head 10.5473 -2.29209 5.99028
lclavicle -2.90495e-15 1.20418e-15 0
lhumerus -31.7715 -8.79411 86.0981
lradius 21.1518 0 0
lwrist -4.56253 0 0
lhand -10.9523 -23.2199 0
lfingers 7.12502 0 0
lthumb 15.0632 6.16104 0
rclavicle -2.90495e-15 1.20418e-15 0
rhumerus -47.5333 7.86014 -85.6673
rradius 40.4685 0 0
rwrist -22.4533 0 0
rhand -29.1602 -21.4263 0
rfingers 7.12502 0 0
rthumb -2.50648 -51.3936 0
